<?xml version="1.0"?>
<!DOCTYPE svg PUBLIC "-//W3C//DTD SVG 1.1//EN" "http://www.w3.org/Graphics/SVG/1.1/DTD/svg11.dtd">
<svg width="164.57930528888448mm" height="66.91610120174283mm" viewBox="0 0 164.57930528888448 66.91610120174283" xmlns="http://www.w3.org/2000/svg" version="1.1">
<g id="Sketch003" transform="translate(0.039653,87.958051) scale(1,-1)">
<circle cx="7.5" cy="80.344528" r="1.5" stroke="#000000" stroke-width="0.35 px" style="stroke-width:0.35;stroke-miterlimit:4;stroke-dasharray:none;fill:none"/>
<circle cx="7.5" cy="28.655472000000003" r="1.5" stroke="#000000" stroke-width="0.35 px" style="stroke-width:0.35;stroke-miterlimit:4;stroke-dasharray:none;fill:none"/>
<circle cx="157.0" cy="28.655472000000003" r="1.5" stroke="#000000" stroke-width="0.35 px" style="stroke-width:0.35;stroke-miterlimit:4;stroke-dasharray:none;fill:none"/>
<circle cx="157.0" cy="80.344528" r="1.5" stroke="#000000" stroke-width="0.35 px" style="stroke-width:0.35;stroke-miterlimit:4;stroke-dasharray:none;fill:none"/>
<title>b'screw001'</title>
</g>
<g id="Sketch005" transform="translate(0.039653,87.958051) scale(1,-1)">
<path id="Sketch005_w0000"  d="M 7.499999999999999 86.344528 A 6 6 0 0 1 3.25736 76.1019L 20.0 59.35924662576145 L 20.0 49.64075337423855 L 3.257359312880716 32.89811268711929 A 6 6 0 0 1 7.5 22.6555L 157.0 22.655472000000003 A 6 6 0 0 1 161.243 32.8981L 144.5 49.64075337423856 L 144.5 59.35924662576145 L 161.2426406871193 76.10188731288072 A 6 6 0 0 1 157 86.3445L 7.499999999999999 86.344528 " stroke="#000000" stroke-width="0.35 px" style="stroke-width:0.35;stroke-miterlimit:4;stroke-dasharray:none;fill:none;fill-rule: evenodd "/>
<path id="Sketch005_w0001"  d="M 25.0 37.655472 L 25.0 71.344528 A 10 10 0 0 0 35 81.3445L 129.5 81.344528 A 10 10 0 0 0 139.5 71.3445L 139.5 37.655472 A 10 10 0 0 0 129.5 27.6555L 35.0 27.655472000000003 A 10 10 0 0 0 25 37.6555" stroke="#000000" stroke-width="0.35 px" style="stroke-width:0.35;stroke-miterlimit:4;stroke-dasharray:none;fill:none;fill-rule: evenodd "/>
<title>b'holder_plate'</title>
</g>
</svg>