<?xml version="1.0"?>
<!DOCTYPE svg PUBLIC "-//W3C//DTD SVG 1.1//EN" "http://www.w3.org/Graphics/SVG/1.1/DTD/svg11.dtd">
<svg width="258.06mm" height="155.06mm" viewBox="0 0 258.06 155.06" xmlns="http://www.w3.org/2000/svg" version="1.1">
<g id="Sketch" transform="translate(2.530000,152.530000) scale(1,-1)">
<path id="Sketch_w0000"  d="M 253.0 150.0 L 0.0 150.0 L 0.0 5.0 L 5.0 0.0 L 248.00000000000003 0.0 L 253.00000000000003 4.999999999999993 L 253.0 150.0 " stroke="#000000" stroke-width="0.35 px" style="stroke-width:0.35;stroke-miterlimit:4;stroke-dasharray:none;fill:none;fill-rule: evenodd "/>
<path id="Sketch_w0001"  d="M 35.0 32.0 L 40.0 32.0 A 2 2 0 0 0 42 30L 41.99999999999999 24.999999999999996 L 114.0 24.999999999999996 L 114.0 29.999999999999996 A 2 2 0 0 0 116 32L 121.0 32.0 L 121.0 130.0 L 116.0 130.0 A 2 2 0 0 0 114 132L 114.0 137.0 L 42.0 137.0 L 42.0 132.0 A 2 2 0 0 0 40 130L 35.0 130.0 L 35.0 32.0 " stroke="#000000" stroke-width="0.35 px" style="stroke-width:0.35;stroke-miterlimit:4;stroke-dasharray:none;fill:none;fill-rule: evenodd "/>
<circle cx="40.0" cy="132.0" r="1.5" stroke="#000000" stroke-width="0.35 px" style="stroke-width:0.35;stroke-miterlimit:4;stroke-dasharray:none;fill:none"/>
<circle cx="116.0" cy="132.0" r="1.5" stroke="#000000" stroke-width="0.35 px" style="stroke-width:0.35;stroke-miterlimit:4;stroke-dasharray:none;fill:none"/>
<circle cx="116.0" cy="30.0" r="1.5" stroke="#000000" stroke-width="0.35 px" style="stroke-width:0.35;stroke-miterlimit:4;stroke-dasharray:none;fill:none"/>
<circle cx="40.0" cy="30.0" r="1.5" stroke="#000000" stroke-width="0.35 px" style="stroke-width:0.35;stroke-miterlimit:4;stroke-dasharray:none;fill:none"/>
<path id="Sketch_w0006"  d="M 151.0 35.0 A 5 5 0 1 1 151 25L 201.0 25.0 A 5 5 0 1 1 201 35L 151.0 35.0 " stroke="#000000" stroke-width="0.35 px" style="stroke-width:0.35;stroke-miterlimit:4;stroke-dasharray:none;fill:none;fill-rule: evenodd "/>
<path id="Sketch_w0007"  d="M 25.0 112.0 A 5 5 0 0 1 15 112L 15.0 62.0 A 5 5 0 0 1 25 62L 25.0 112.0 " stroke="#000000" stroke-width="0.35 px" style="stroke-width:0.35;stroke-miterlimit:4;stroke-dasharray:none;fill:none;fill-rule: evenodd "/>
<path id="Sketch_w0008"  d="M 66.0 20.0 A 5 5 0 0 1 66 10L 106.0 10.0 A 5 5 0 1 1 106 20L 66.0 20.0 " stroke="#000000" stroke-width="0.35 px" style="stroke-width:0.35;stroke-miterlimit:4;stroke-dasharray:none;fill:none;fill-rule: evenodd "/>
<circle cx="151.0" cy="125.0" r="1.5" stroke="#000000" stroke-width="0.35 px" style="stroke-width:0.35;stroke-miterlimit:4;stroke-dasharray:none;fill:none"/>
<circle cx="200.0" cy="125.0" r="1.5" stroke="#000000" stroke-width="0.35 px" style="stroke-width:0.35;stroke-miterlimit:4;stroke-dasharray:none;fill:none"/>
<circle cx="151.0" cy="67.0" r="1.5" stroke="#000000" stroke-width="0.35 px" style="stroke-width:0.35;stroke-miterlimit:4;stroke-dasharray:none;fill:none"/>
<circle cx="200.0" cy="67.0" r="1.5" stroke="#000000" stroke-width="0.35 px" style="stroke-width:0.35;stroke-miterlimit:4;stroke-dasharray:none;fill:none"/>
<path id="Sketch_w0013"  d="M 164.49999999999997 129.99999999999991 A 4 4 0 1 1 156.5 130L 156.49999999999875 79.9999999999934 A 4 4 0 1 1 164.5 80L 164.49999999999997 129.99999999999991 " stroke="#000000" stroke-width="0.35 px" style="stroke-width:0.35;stroke-miterlimit:4;stroke-dasharray:none;fill:none;fill-rule: evenodd "/>
<path id="Sketch_w0014"  d="M 179.49999999999997 130.0 A 4 4 0 0 1 171.5 130L 171.49999999999997 79.99999999999123 A 4 4 0 0 1 179.5 80L 179.49999999999997 130.0 " stroke="#000000" stroke-width="0.35 px" style="stroke-width:0.35;stroke-miterlimit:4;stroke-dasharray:none;fill:none;fill-rule: evenodd "/>
<path id="Sketch_w0015"  d="M 194.49999999999997 130.0 A 4 4 0 0 1 186.5 130L 186.49999999999997 79.99999999999123 A 4 4 0 0 1 194.5 80L 194.49999999999997 130.0 " stroke="#000000" stroke-width="0.35 px" style="stroke-width:0.35;stroke-miterlimit:4;stroke-dasharray:none;fill:none;fill-rule: evenodd "/>
<title>b'Sketch'</title>
</g>
</svg>