<?xml version="1.0"?>
<!DOCTYPE svg PUBLIC "-//W3C//DTD SVG 1.1//EN" "http://www.w3.org/Graphics/SVG/1.1/DTD/svg11.dtd">
<svg width="258.06000000000006mm" height="167.06mm" viewBox="0 0 258.06000000000006 167.06" xmlns="http://www.w3.org/2000/svg" version="1.1">
<g id="Sketch" transform="translate(2.530000,164.530000) scale(1,-1)">
<path id="Sketch_w0000"  d="M 20.0 162.0 L 78.0 162.0 L 90.0 150.0 L 253.00000000000006 150.0 L 253.0 4.999999999999995 L 248.0 -5.757262429526289e-31 L 5.0 0.0 L 1.564903987996554e-31 5.0 L 6.921380591239352e-32 150.0 L 8.000000000000002 150.0 L 20.0 162.0 " stroke="#000000" stroke-width="0.35 px" style="stroke-width:0.35;stroke-miterlimit:4;stroke-dasharray:none;fill:none;fill-rule: evenodd "/>
<path id="Sketch_w0001"  d="M 35.0 33.5 L 40.0 33.5 A 3.5 3.5 0 0 0 43.5 30L 43.5 25.0 L 112.5 25.0 L 112.5 30.0 A 3.5 3.5 0 0 0 116 33.5L 121.0 33.5 L 121.0 128.5 L 116.0 128.5 A 3.5 3.5 0 0 0 112.5 132L 112.5 137.0 L 43.5 137.0 L 43.5 132.0 A 3.5 3.5 0 0 0 40 128.5L 35.0 128.5 L 35.0 33.5 " stroke="#000000" stroke-width="0.35 px" style="stroke-width:0.35;stroke-miterlimit:4;stroke-dasharray:none;fill:none;fill-rule: evenodd "/>
<circle cx="40.0" cy="132.0" r="1.5" stroke="#000000" stroke-width="0.35 px" style="stroke-width:0.35;stroke-miterlimit:4;stroke-dasharray:none;fill:none"/>
<circle cx="116.0" cy="132.0" r="1.5" stroke="#000000" stroke-width="0.35 px" style="stroke-width:0.35;stroke-miterlimit:4;stroke-dasharray:none;fill:none"/>
<circle cx="116.0" cy="30.0" r="1.5" stroke="#000000" stroke-width="0.35 px" style="stroke-width:0.35;stroke-miterlimit:4;stroke-dasharray:none;fill:none"/>
<circle cx="40.0" cy="30.0" r="1.5" stroke="#000000" stroke-width="0.35 px" style="stroke-width:0.35;stroke-miterlimit:4;stroke-dasharray:none;fill:none"/>
<path id="Sketch_w0006"  d="M 161.0 35.0 A 5 5 0 1 1 161 25L 211.0 25.0 A 5 5 0 1 1 211 35L 161.0 35.0 " stroke="#000000" stroke-width="0.35 px" style="stroke-width:0.35;stroke-miterlimit:4;stroke-dasharray:none;fill:none;fill-rule: evenodd "/>
<path id="Sketch_w0007"  d="M 25.0 112.0 A 5 5 0 0 1 15 112L 15.0 62.0 A 5 5 0 1 1 25 62L 25.0 112.0 " stroke="#000000" stroke-width="0.35 px" style="stroke-width:0.35;stroke-miterlimit:4;stroke-dasharray:none;fill:none;fill-rule: evenodd "/>
<path id="Sketch_w0008"  d="M 66.0 20.0 A 5 5 0 0 1 66 10L 106.0 10.0 A 5 5 0 0 1 106 20L 66.0 20.0 " stroke="#000000" stroke-width="0.35 px" style="stroke-width:0.35;stroke-miterlimit:4;stroke-dasharray:none;fill:none;fill-rule: evenodd "/>
<circle cx="161.0" cy="124.99999999424841" r="1.5" stroke="#000000" stroke-width="0.35 px" style="stroke-width:0.35;stroke-miterlimit:4;stroke-dasharray:none;fill:none"/>
<circle cx="210.0" cy="124.99999999424841" r="1.5" stroke="#000000" stroke-width="0.35 px" style="stroke-width:0.35;stroke-miterlimit:4;stroke-dasharray:none;fill:none"/>
<circle cx="161.0" cy="66.99999999424841" r="1.5" stroke="#000000" stroke-width="0.35 px" style="stroke-width:0.35;stroke-miterlimit:4;stroke-dasharray:none;fill:none"/>
<circle cx="210.0" cy="66.99999999424841" r="1.5" stroke="#000000" stroke-width="0.35 px" style="stroke-width:0.35;stroke-miterlimit:4;stroke-dasharray:none;fill:none"/>
<path id="Sketch_w0013"  d="M 174.5 129.9999999942484 A 4 4 0 1 1 166.5 130L 166.5 79.99999999424841 A 4 4 0 0 1 174.5 80L 174.5 129.9999999942484 " stroke="#000000" stroke-width="0.35 px" style="stroke-width:0.35;stroke-miterlimit:4;stroke-dasharray:none;fill:none;fill-rule: evenodd "/>
<path id="Sketch_w0014"  d="M 189.5 129.9999999942484 A 4 4 0 0 1 181.5 130L 181.5 79.99999999424841 A 4 4 0 1 1 189.5 80L 189.5 129.9999999942484 " stroke="#000000" stroke-width="0.35 px" style="stroke-width:0.35;stroke-miterlimit:4;stroke-dasharray:none;fill:none;fill-rule: evenodd "/>
<path id="Sketch_w0015"  d="M 204.5 129.9999999942484 A 4 4 0 1 1 196.5 130L 196.5 79.99999999424841 A 4 4 0 0 1 204.5 80L 204.5 129.9999999942484 " stroke="#000000" stroke-width="0.35 px" style="stroke-width:0.35;stroke-miterlimit:4;stroke-dasharray:none;fill:none;fill-rule: evenodd "/>
<circle cx="25.0" cy="157.0" r="1.6" stroke="#000000" stroke-width="0.35 px" style="stroke-width:0.35;stroke-miterlimit:4;stroke-dasharray:none;fill:none"/>
<circle cx="73.0" cy="157.0" r="1.6" stroke="#000000" stroke-width="0.35 px" style="stroke-width:0.35;stroke-miterlimit:4;stroke-dasharray:none;fill:none"/>
<circle cx="25.0" cy="147.0" r="1.6" stroke="#000000" stroke-width="0.35 px" style="stroke-width:0.35;stroke-miterlimit:4;stroke-dasharray:none;fill:none"/>
<circle cx="73.0" cy="147.0" r="1.6" stroke="#000000" stroke-width="0.35 px" style="stroke-width:0.35;stroke-miterlimit:4;stroke-dasharray:none;fill:none"/>
<circle cx="144.0" cy="123.5" r="1.6" stroke="#000000" stroke-width="0.35 px" style="stroke-width:0.35;stroke-miterlimit:4;stroke-dasharray:none;fill:none"/>
<circle cx="127.0" cy="92.5" r="1.6" stroke="#000000" stroke-width="0.35 px" style="stroke-width:0.35;stroke-miterlimit:4;stroke-dasharray:none;fill:none"/>
<circle cx="144.0" cy="62.5" r="1.6" stroke="#000000" stroke-width="0.35 px" style="stroke-width:0.35;stroke-miterlimit:4;stroke-dasharray:none;fill:none"/>
<circle cx="127.0" cy="31.5" r="1.6" stroke="#000000" stroke-width="0.35 px" style="stroke-width:0.35;stroke-miterlimit:4;stroke-dasharray:none;fill:none"/>
<path id="Sketch_w0024"  d="M 127.0 140.5 A 2 2 0 0 1 127 136.5L 144.0 136.5 A 2 2 0 1 1 144 140.5L 127.0 140.5 " stroke="#000000" stroke-width="0.35 px" style="stroke-width:0.35;stroke-miterlimit:4;stroke-dasharray:none;fill:none;fill-rule: evenodd "/>
<path id="Sketch_w0025"  d="M 127.0 80.89105318721072 A 2 2 0 1 1 127 76.8911L 144.0 76.89105318721072 A 2 2 0 1 1 144 80.8911L 127.0 80.89105318721072 " stroke="#000000" stroke-width="0.35 px" style="stroke-width:0.35;stroke-miterlimit:4;stroke-dasharray:none;fill:none;fill-rule: evenodd "/>
<path id="Sketch_w0026"  d="M 127.0 18.5 A 2 2 0 1 1 127 14.5L 144.0 14.5 A 2 2 0 1 1 144 18.5L 127.0 18.5 " stroke="#000000" stroke-width="0.35 px" style="stroke-width:0.35;stroke-miterlimit:4;stroke-dasharray:none;fill:none;fill-rule: evenodd "/>
<title>b'Sketch'</title>
</g>
</svg>